<svg xmlns="http://www.w3.org/2000/svg" xmlns:xlink="http://www.w3.org/1999/xlink" version="1.1" x="0px" y="0px" viewBox="0 0 200 200" style="enable-background:new 0 0 200 200;" xml:space="preserve"><style type="text/css">
	.st0{stroke:#FFFFFF;stroke-width:7;stroke-miterlimit:10;}
	.st1{fill:#FFFFFF;}
	.st2{fill:none;stroke:#000000;stroke-width:7;stroke-linecap:round;stroke-linejoin:round;}
	.st3{fill:none;stroke:#000000;stroke-width:7;stroke-linecap:round;stroke-linejoin:round;stroke-dasharray:0,9.0235;}
	.st4{fill:none;stroke:#000000;stroke-width:7;stroke-linecap:round;stroke-linejoin:round;stroke-dasharray:0,10,0,10;}
	.st5{fill:#010101;}
</style><g><g><g><path d="M56.6,77.3c0.6,0.7,0.9,1.6,0.9,2.5c-0.1,0.9-0.5,1.8-1.2,2.4c-0.7,0.6-1.6,0.9-2.5,0.9h0c-0.9-0.1-1.8-0.5-2.4-1.2     c-0.6-0.7-0.9-1.6-0.8-2.5s0.5-1.8,1.2-2.4c0.6-0.5,1.4-0.8,2.3-0.8c0.1,0,0.1,0,0.2,0C55.1,76.2,56,76.6,56.6,77.3z"></path><path d="M84.3,82.4c-0.2,0-0.4,0-0.5,0c-1.6,0-3.1,0.6-4.2,1.7c-0.9-1.5-2.3-2.6-4.1-3c-2.1-0.4-4.1,0.2-5.5,1.8     c-0.5-2-1.9-3.6-3.8-4.3c-0.7-0.2-1.4-0.4-2.1-0.4c-1.3,0-2.5,0.4-3.5,1.1c-0.1-1.5-0.8-3-1.9-4l4.7-8.2     c5.3-9.2,17.1-12.4,26.3-7.1l14,8l18.9,10.9c1.7,1,3.2,2.2,4.5,3.6c0.6,0.6,1.1,1.3,1.6,2c3.4,4.9,4.4,11.2,2.6,16.9     c-0.3,0.8-0.6,1.6-1,2.4c-0.2,0.4-0.4,0.9-0.7,1.3l-12.5,21.7l-8.1,14.1l-15,26l-6.1,10.6c-2.6,4.4-6.7,7.6-11.7,9     c-5,1.3-10.2,0.7-14.6-1.9l-32.9-18.9c-9.2-5.3-12.4-17.1-7.1-26.3l31-53.9c0.4,0.1,0.8,0.2,1.3,0.2c0.1,0,0.3,0,0.5,0     c1.1,0,2.1-0.3,3-0.8c0.2-0.1,0.3-0.2,0.5-0.3c0,0.7,0.2,1.5,0.5,2.2c0.7,1.5,1.9,2.6,3.5,3.2c0.6,0.2,1.1,0.3,1.6,0.3     c0.1,0,0.3,0,0.5,0c1.6,0,3.2-0.7,4.3-1.8c0.6,2.2,2.4,4,4.8,4.5c0.1,0,0.2,0,0.4,0c0.1,0,0.2,0,0.3,0c0.2,0,0.3,0,0.5,0     c1.6,0,3.1-0.6,4.2-1.7c0.9,1.7,2.5,2.8,4.7,3c1.4,0.2,3-0.5,3-0.5c0.6,0.7,1.3,1.3,2.1,1.8c0.1,0.1,0.3,0.2,0.4,0.2     c4.3,2.5,9.7,1,12.1-3.3s1-9.7-3.3-12.1c-2.4-1.4-5.1-1.5-7.5-0.6c-1.5,0.5-2.8,1.5-3.8,2.7c-0.1,0-0.1-0.1-0.2-0.1l-0.1-0.1     C85.4,82.5,84.9,82.4,84.3,82.4z M103,124c3-5.2-5-9.9-8-4.7c-1.4,2.5-2.8,5-4.3,7.4c-7.2,12.5-14.3,24.9-21.5,37.4     c-3,5.2,5,9.9,8,4.7c4.9-8.6,9.9-17.2,14.8-25.7C95.7,136.8,99.4,130.4,103,124z M80.3,123.2c3-5.2-5-9.9-8-4.7     c-6.8,11.9-13.7,23.7-20.5,35.6c-3,5.2,5,9.9,8,4.7C66.6,146.9,73.5,135.1,80.3,123.2z M68.2,104c3-5.2-5.1-9.9-8-4.7     c-8.6,14.9-17.2,29.9-25.8,44.8c-3,5.2,5,9.9,8,4.7C51,133.8,59.6,118.9,68.2,104z"></path><path d="M182.6,73.3v0.1c-0.1,1.8-1.6,3.3-3.4,3.3h-0.1l-1.9-0.7c-1.3-1.9-1.5-2.4-1.5-2.7l0-0.2c0.1-1.6,1.2-2.9,2.8-3.3     c0.2-0.1,0.5-0.1,0.8-0.1C181.2,69.9,182.6,71.4,182.6,73.3z"></path><path d="M177.8,66.4L177.8,66.4c-0.2,0-0.4,0.1-0.6,0.1c-0.1,0-0.1,0-0.2,0c-1.2-0.1-2.2-0.7-2.8-1.8c-0.7-1.4-0.5-3.1,0.6-4.2     c0.2-0.2,0.4-0.4,0.7-0.5c0.5-0.3,1.1-0.4,1.7-0.4c1.3,0,2.4,0.7,3,1.8c0.3,0.5,0.4,1.1,0.4,1.6c0,1.3-0.7,2.4-1.8,3     C178.5,66.2,178.2,66.3,177.8,66.4z"></path><path d="M175.7,79.2c0.8,0.2,1.4,0.7,1.9,1.4c0.4,0.6,0.6,1.2,0.6,1.9c0,1.2-0.6,2.2-1.6,2.9c-0.4,0.3-0.9,0.5-1.4,0.5l0-0.2     l-1.3,0.1c-0.6-0.1-1.1-0.4-1.5-0.8c-0.2-0.2-0.4-0.4-0.6-0.6c-0.7-1.1-0.8-2.4-0.1-3.6c0.3-0.5,0.6-0.9,1.1-1.2     c0.1-0.1,0.2-0.1,0.4-0.2l0.9-0.3c0,0,0,0,0,0C174.6,79,175.2,79,175.7,79.2z"></path><path d="M172.9,55.9c0,0.6-0.1,1.2-0.4,1.7c-0.1,0.3-0.3,0.5-0.6,0.7h0c-0.6,0.7-1.5,1-2.4,1c-0.1,0-0.1,0-0.2,0     c-0.5,0-1-0.2-1.5-0.4c-1.5-0.9-2.2-2.7-1.5-4.4c0-0.1,0.1-0.2,0.2-0.3c0.6-1.1,1.8-1.8,3-1.8c0.6,0,1.2,0.1,1.7,0.4     C172.2,53.5,172.9,54.7,172.9,55.9z"></path><path d="M162.9,53.1c-0.8,1.3-1.9,2.1-3.1,2.1c-0.1,0-0.1,0-0.2,0c-0.3,0-0.7-0.1-1-0.2c-1.8-0.7-2.7-2.7-2-4.4     c0.5-1.4,1.8-2.3,3.3-2.3c0.4,0,0.8,0.1,1.2,0.2c1.4,0.5,2.3,1.8,2.3,3.2c0,0.4-0.1,0.8-0.2,1.2C162.9,53,162.9,53,162.9,53.1z"></path><path d="M153.2,47.9c0,0.4-0.1,0.9-0.3,1.3c-0.5,1.3-1.8,2.1-3.2,2.1c-0.1,0-0.1,0-0.2,0c-0.4,0-0.7-0.1-1.1-0.2     c-1.8-0.7-2.6-2.8-1.9-4.5c0.1-0.2,0.1-0.3,0.3-0.5c0.6-1,1.7-1.7,2.9-1.7c0.4,0,0.9,0.1,1.3,0.3     C152.4,45.3,153.2,46.5,153.2,47.9z"></path><path d="M143.9,42.9c0,0.6-0.1,1.1-0.4,1.6c-0.1,0.2-0.2,0.3-0.3,0.5c-0.7,0.9-1.7,1.4-2.8,1.4c-0.1,0-0.1,0-0.2,0     c-0.7,0-1.3-0.3-1.8-0.7c-0.7-0.5-1.2-1.3-1.4-2.2c-0.1-0.9,0.1-1.8,0.6-2.6c0.1-0.1,0.1-0.2,0.2-0.3c1.4-1.1,2-1.1,2.6-1.1     c0.8,0,1.5,0.2,2.1,0.7C143.3,40.8,143.9,41.8,143.9,42.9z"></path><path d="M136,35.8c0,0.8-0.3,1.6-0.9,2.3c-0.1,0.1-0.1,0.1-0.2,0.2l0,0c-1.1,0.8-1.8,0.9-2.4,0.9c-0.1,0-0.1,0-0.2,0     c-0.8-0.1-1.5-0.4-2.1-0.9c-0.7-0.6-1.1-1.5-1.2-2.4c-0.1-0.9,0.2-1.8,0.9-2.5c0.7-0.8,1.6-1.2,2.6-1.2c0.8,0,1.6,0.3,2.3,0.9     C135.6,33.8,136,34.8,136,35.8z"></path><path d="M118.2,139.9l17.8-31c0,0,1.5-3.5,2.3-5.2c3-6.6,0.4-17.7-3.6-23.4c-2.3-3.2-5.1-5.9-8.5-7.8l-4.8-2.8l25.6-2.1     c9-0.7,18.3,4.8,20,13.7c1,5.3,7.6,87.1,7.6,87.1c0.4,5.1-1.2,10.1-4.5,14c-3.3,3.9-8,6.3-13.1,6.7l-37.8,3.1     c-10.5,0.9-19.9-7-20.8-17.6l0-0.3l11.7-20.3c0.5,5.7,0.9,11.3,1.4,17c0.5,5.9,9.8,6,9.3,0C119.9,160.6,119,150.2,118.2,139.9z      M128.1,128.4c1.1,13.6,2.2,27.3,3.4,40.9c0.5,5.9,9.8,6,9.3,0c-1.1-13.6-2.2-27.3-3.4-40.9C136.9,122.5,127.6,122.4,128.1,128.4     z M151.5,167.6c0.5,5.9,9.8,6,9.3,0c-1.4-17.2-2.8-34.3-4.2-51.5c-0.5-5.9-9.8-6-9.3,0C148.7,133.3,150.1,150.5,151.5,167.6z"></path><path d="M127.7,29.1c0,0.7-0.2,1.4-0.7,2c-0.1,0.1-0.2,0.2-0.3,0.4c-0.7,0.7-1.5,1.1-2.5,1.1c-0.1,0-0.1,0-0.2,0     c-0.6,0-1.3-0.3-1.8-0.6c-1.4-1.1-1.8-3.1-0.9-4.6c0.1-0.1,0.1-0.2,0.2-0.3c0.6-0.9,1.7-1.4,2.8-1.4c0.7,0,1.4,0.2,2,0.7     C127.2,27,127.7,28,127.7,29.1z"></path><path d="M118.1,25.4c-1.2,1.2-2.1,1.4-2.8,1.4c-0.1,0-0.1,0-0.2,0c-0.5,0-1-0.2-1.5-0.5c-0.8-0.5-1.4-1.2-1.6-2.1     c-0.2-0.9-0.1-1.8,0.4-2.6c0.6-1.1,1.7-1.7,3-1.7c0.6,0,1.2,0.2,1.7,0.5c1.1,0.6,1.7,1.7,1.7,3c0,0.6-0.2,1.2-0.5,1.7     C118.3,25.1,118.2,25.3,118.1,25.4z"></path><path d="M109.4,18.4c0,0.5-0.1,1-0.3,1.4L109,20c-0.8,1.2-1.8,1.8-3.1,1.8c-0.1,0-0.1,0-0.2,0c-0.4,0-0.8-0.1-1.2-0.3     c-1.6-0.7-2.4-2.5-1.8-4.3c0-0.1,0.1-0.2,0.1-0.3c0.6-1.2,1.8-2.1,3.2-2.1c0.5,0,1,0.1,1.4,0.3C108.6,15.8,109.4,17,109.4,18.4z"></path><path d="M99.1,16.2c-1.2,1.8-2.4,2-3.1,2c-0.1,0-0.1,0-0.2,0c-0.3,0-0.5-0.1-0.8-0.1c-1.7-0.5-2.8-2.3-2.4-4.1     c0-0.1,0-0.1,0.1-0.2c0.4-1.5,1.8-2.5,3.3-2.5c0.3,0,0.7,0,1,0.1c1.5,0.4,2.5,1.8,2.5,3.3c0,0.3,0,0.6-0.1,0.9L99.1,16.2z"></path><path d="M95.9,86.3c0.6,0.7,0.9,1.6,0.9,2.5c-0.1,0.9-0.5,1.8-1.2,2.4c-0.7,0.6-1.6,0.9-2.5,0.9h0c-0.9-0.1-1.8-0.5-2.4-1.2     c-0.6-0.7-0.9-1.6-0.8-2.5s0.5-1.8,1.2-2.4c0.6-0.5,1.4-0.8,2.3-0.8c0.1,0,0.1,0,0.2,0C94.5,85.2,95.3,85.6,95.9,86.3z"></path><path d="M89,13.3c-0.6,1.7-1.8,2.7-3.4,2.7c-0.1,0-0.1,0-0.2,0l-0.3,0c-1.8-0.2-3.1-1.8-3-3.6l0-0.3c0.2-1.7,1.7-3,3.4-3     c0.1,0,0.3,0,0.5,0c1.7,0.2,3,1.7,3,3.4c0,0.1,0,0.3,0,0.4L89,13.3z"></path><path d="M86.3,86.3c0.6,0.7,0.9,1.6,0.9,2.5c-0.1,0.9-0.5,1.8-1.2,2.4c-0.7,0.6-1.6,0.9-2.5,0.9h0c-0.9-0.1-1.8-0.5-2.4-1.2     c-0.6-0.7-0.9-1.6-0.8-2.5s0.5-1.8,1.2-2.4c0.6-0.5,1.4-0.8,2.3-0.8c0.1,0,0.1,0,0.2,0C84.9,85.2,85.7,85.6,86.3,86.3z"></path><path d="M78.4,11.8c0,0.1,0,0.1,0,0.3c0,1.8-1.5,3.3-3.4,3.4c0,0-0.1,0-0.1,0c0,0-0.1,0-0.2,0c-0.8-0.1-1.6-0.4-2.2-1     c-0.5-0.5-0.8-1.2-0.9-1.9c0-0.1,0-0.2,0-0.3c-0.1-1.9,1.4-3.5,3.2-3.6H75C76.8,8.6,78.3,10,78.4,11.8z"></path><path d="M77.6,87.7c-0.3,1.6-1.7,2.8-3.4,2.8c-0.1,0-0.1,0-0.2,0c-0.1,0-0.2,0-0.3,0c-0.1,0-0.2,0-0.2,0c-1.9-0.4-3.1-2.2-2.7-4     c0-0.1,0-0.2,0-0.2c0.2-0.6,0.6-1.1,0.9-1.5c0.6-0.7,1.5-1.1,2.4-1.1c0.2,0,0.4,0,0.7,0.1c1.6,0.3,2.8,1.7,2.8,3.4     c0,0.1,0,0.2,0,0.3C77.7,87.5,77.7,87.6,77.6,87.7z"></path><path d="M67.9,13.1c0,0.2,0,0.4,0,0.6c0,1.5-1,2.9-2.5,3.3c-0.3,0.1-0.6,0.1-0.9,0.1c-0.1,0-0.1,0-0.2,0c-0.7,0-1.4-0.3-1.9-0.8     c-0.4-0.4-0.8-0.8-1-1.2v0c-0.1-0.2-0.2-0.4-0.2-0.5c-0.2-0.9-0.1-1.8,0.3-2.6c0.5-0.8,1.2-1.4,2.1-1.6c0.3-0.1,0.6-0.1,0.9-0.1     c1.5,0,2.9,1,3.3,2.6C67.9,12.8,67.9,12.9,67.9,13.1z"></path><path d="M65.2,81c1.4,0.5,2.3,1.8,2.3,3.2c0,0.3,0,0.6-0.1,0.9l0,0c0,0.1-0.1,0.2-0.1,0.3c-0.5,1.4-1.8,2.3-3.2,2.3     c-0.1,0-0.1,0-0.2,0c-0.3,0-0.6-0.1-0.9-0.2c-0.9-0.3-1.6-1-2-1.8c-0.4-0.8-0.4-1.8-0.1-2.7c0.5-1.4,1.8-2.3,3.2-2.3     C64.4,80.8,64.8,80.9,65.2,81z"></path><path d="M57.9,16.3l0.3,1.5c0,1.2-0.7,2.3-1.7,2.9c-0.6,0.3-1.2,0.5-1.8,0.5c0,0-0.1,0-0.2,0c-1-0.1-1.9-0.6-2.5-1.3l0,0     c-0.1-0.1-0.2-0.2-0.2-0.4c-0.5-0.8-0.6-1.7-0.4-2.6c0.2-0.9,0.8-1.6,1.6-2.1c0.5-0.3,1.1-0.5,1.7-0.5c1.2,0,2.4,0.6,3,1.7     C57.8,16,57.8,16.2,57.9,16.3z"></path><path d="M49.9,24.3c0,0.9-0.3,1.7-0.9,2.4c-0.6,0.7-1.5,1.1-2.5,1.1c-0.1,0-0.1,0-0.2,0c-0.5,0-1-0.2-1.4-0.4     c-0.3-0.1-0.5-0.3-0.7-0.5c-0.7-0.6-1.1-1.5-1.1-2.4c0-0.9,0.3-1.8,0.9-2.5c1.3-1.4,3.5-1.4,4.9-0.2     C49.5,22.4,49.9,23.3,49.9,24.3z"></path><path d="M48.9,70.6c0.6,0.6,0.9,1.5,0.9,2.3c0,1-0.4,1.9-1.1,2.6c-0.6,0.6-1.5,0.9-2.3,0.9c-0.1,0-0.1,0-0.2,0     c-0.9-0.1-1.7-0.5-2.3-1.1c-1.3-1.4-1.2-3.6,0.3-4.9c0.3-0.3,0.6-0.5,1-0.6l1.4-0.3C47.4,69.5,48.2,69.9,48.9,70.6z"></path><path d="M43.7,62.6c0.2,0.5,0.3,0.9,0.3,1.4c0,1.4-0.8,2.6-2.1,3.1c-0.4,0.2-0.9,0.3-1.4,0.3c-0.1,0-0.1,0-0.2,0     c-0.6,0-1.2-0.2-1.7-0.6c-0.5-0.4-1-0.9-1.2-1.4c-0.4-0.8-0.4-1.8-0.1-2.6c0.3-0.9,1-1.5,1.8-1.9c0.2-0.1,0.4-0.2,0.6-0.2     c0.3-0.1,0.5-0.1,0.8-0.1C41.9,60.6,43.1,61.4,43.7,62.6z"></path><path d="M43.5,34.6c-0.6,1.2-1.8,1.9-3.1,1.9c0,0-0.1,0-0.1,0l-0.1,0c-0.5-0.1-0.9-0.2-1.3-0.4c-1.7-0.9-2.4-2.9-1.5-4.6     c0.6-1.2,1.8-1.9,3.1-1.9c0.5,0,1.1,0.1,1.5,0.4c1.2,0.6,1.9,1.8,1.9,3.1C43.9,33.6,43.7,34.1,43.5,34.6z"></path><path d="M41.1,43.2c0,0.1,0,0.3,0,0.4c-0.2,1.7-1.7,3.1-3.4,3.1c-0.1,0-0.1,0-0.2,0c-0.1,0-0.1,0-0.3,0c-0.9-0.1-1.7-0.6-2.3-1.3     c-0.6-0.7-0.8-1.6-0.7-2.6c0.2-1.7,1.7-3,3.4-3c0.1,0,0.3,0,0.4,0c0.4,0.1,0.7,0.1,1.1,0.3C41.1,42,41.1,42.7,41.1,43.2z"></path><path d="M38.7,57.1c-0.2,0.1-0.4,0.1-0.6,0.1c-0.1,0-0.3,0-0.4,0c-0.1,0-0.1,0-0.2,0c-0.8-0.1-1.5-0.4-2.1-0.9     c-0.6-0.6-1-1.3-1.1-2.1c-0.1-0.9,0.1-1.8,0.7-2.6c0.6-0.7,1.4-1.2,2.3-1.3c0.1,0,0.2,0,0.4,0c1.7,0,3.2,1.3,3.4,3     c0,0.1,0,0.3,0,0.4C41.1,55.3,40.2,56.7,38.7,57.1L38.7,57.1z"></path></g></g></g></svg>