<svg xmlns="http://www.w3.org/2000/svg" xmlns:xlink="http://www.w3.org/1999/xlink" version="1.1" x="0px" y="0px" viewBox="0 0 32 32" enable-background="new 0 0 32 32" xml:space="preserve"><path d="M29.5,26H28v-9.851c0.669-0.635,1.084-1.513,1.084-2.482c0-0.035-0.004-0.069-0.011-0.103L29,13.215V13h-0.045L28,8.449V3.5  C28,3.224,27.776,3,27.5,3h-23C4.224,3,4,3.224,4,3.5v4.942l-1.183,5.112c-0.008,0.037-0.013,0.075-0.013,0.113  c0,1.019,0.466,1.93,1.195,2.57V26H2.5C2.224,26,2,26.224,2,26.5v2C2,28.776,2.224,29,2.5,29h27c0.276,0,0.5-0.224,0.5-0.5v-2  C30,26.224,29.776,26,29.5,26z M25.424,16.167c-1.346,0-2.448-0.947-2.624-2.167h5.247C27.872,15.22,26.769,16.167,25.424,16.167z   M15,15v0.045c-0.477,0.675-1.291,1.122-2.216,1.122c-1.345,0-2.448-0.947-2.624-2.167h5.248c-0.052,0.364-0.182,0.703-0.382,1H15z   M20.034,16H20v0.01c-0.281,0.095-0.58,0.156-0.896,0.156c-1.345,0-2.448-0.947-2.623-2.167h5.247  C21.595,14.922,20.934,15.682,20.034,16z M16,15.499c0.646,0.997,1.79,1.667,3.104,1.667c0.311,0,0.608-0.049,0.896-0.119V22h-4  V15.499z M21,16.645c0.524-0.307,0.956-0.734,1.264-1.245c0.564,0.938,1.562,1.594,2.736,1.726V22h-4V16.645z M3.972,13l0.925-4H9v3  h1V9h5v3h1V9h6v3h1V9h4.094l0.839,4H3.972z M5,4h22v4h-4h-1h-6h-1h-5H9H5V4z M3.841,14h5.248c-0.176,1.22-1.279,2.167-2.625,2.167  C5.12,16.167,4.018,15.22,3.841,14z M5,16.87c0.449,0.188,0.943,0.297,1.464,0.297c1.355,0,2.527-0.717,3.16-1.767  c0.632,1.049,1.804,1.766,3.16,1.766c0.836,0,1.599-0.28,2.216-0.733V22.5c0,0.276,0.224,0.5,0.5,0.5h10c0.276,0,0.5-0.224,0.5-0.5  v-5.389c0.354-0.054,0.688-0.155,1-0.299V26H13v-7.5c0-0.276-0.224-0.5-0.5-0.5h-5C7.224,18,7,18.224,7,18.5V26H5V16.87z M12,26H8  v-7h4V26z M29,28H3v-1h1.5h3h5h15H29V28z"></path></svg>